<svg width="512" height="512" viewBox="0 0 512 512" xmlns="http://www.w3.org/2000/svg">
  <!-- v2-D:极简单色 logo,鱼+双钳色块,黑白也成立,科技感 -->
  <defs>
    <linearGradient id="bgD" x1="0" y1="0" x2="1" y2="1">
      <stop offset="0" stop-color="#0891b2"/><stop offset="1" stop-color="#0e7490"/>
    </linearGradient>
  </defs>
  <rect width="512" height="512" rx="116" fill="url(#bgD)"/>

  <!-- 鱼(极简侧影,白) -->
  <g transform="rotate(-10 256 256)">
    <path d="M168 256 Q192 176 286 172 Q372 170 400 256 Q372 342 286 340 Q192 336 168 256 Z" fill="#ffffff"/>
    <path d="M168 256 L112 200 Q130 256 112 312 Z" fill="#ffffff"/>
    <circle cx="350" cy="238" r="14" fill="#0891b2"/>
  </g>

  <!-- 两只极简蟹钳(白色,简化但保留钳口) -->
  <g fill="#ffffff">
    <g transform="translate(214 366) rotate(26)">
      <rect x="-38" y="-12" width="44" height="24" rx="12"/>
      <circle cx="0" cy="0" r="24"/>
      <path d="M10 9 Q48 14 56 0 Q50 -5 36 -3 Q22 1 10 9 Z"/>
      <path d="M8 -9 Q44 -14 52 -28 Q44 -32 32 -26 Q20 -18 8 -9 Z"/>
    </g>
    <g transform="translate(298 366) rotate(-26)">
      <rect x="-6" y="-12" width="44" height="24" rx="12"/>
      <circle cx="0" cy="0" r="24"/>
      <path d="M-10 9 Q-48 14 -56 0 Q-50 -5 -36 -3 Q-22 1 -10 9 Z"/>
      <path d="M-8 -9 Q-44 -14 -52 -28 Q-44 -32 -32 -26 Q-20 -18 -8 -9 Z"/>
    </g>
  </g>
</svg>
